# xmcd
#
# Track frame offsets: 
#        150
#        19172
#        33040
#
# Disc length: 601 seconds
#
# Revision: 0
# Processed by: cddbd v1.5PL3 Copyright (c) Steve Scherf et al.
# Submitted via: ExactAudioCopy v0.90b4
#
DISCID=16025703
DTITLE=Sads - Sekirara
DYEAR=2000
DGENRE=Rock
TTITLE0=Sekirara
TTITLE1=TennAge (Remix)
TTITLE2=LIAR (Live)
EXTD=
EXTT0=
EXTT1=
EXTT2=
PLAYORDER=
